#!OML:ASF X:\für Bonn\!DataBase\2005_08_11_Bastian_Final\c3d\Bastian.ASF
:FULLY-SPECIFIED
:DEGREES
47
root -8.19438 16.4119 10.2764 533.652 28.8252 -172.902
lowerback 24.5426 -2.4514 0.567386
upperback 17.9809 0.980613 2.55264
thorax 6.42503 2.04016 2.484
lowerneck -11.4535 -12.6781 -23.5395
upperneck -9.16432 -13.4601 31.5181
head 3.72268 -5.5104 13.1697
rclavicle 8.15017e-015 -1.92821e-014
rhumerus -22.0371 22.0774 -90.6792
rradius 67.3449
rwrist 11.5344
rhand -19.9473 8.63126
rfingers 7.12502
rthumb 6.39068 -21.2523
lclavicle 8.15017e-015 -1.92821e-014
lhumerus -20.985 -39.0792 99.3928
lradius 67.4182
lwrist 9.53813
lhand -15.1772 -12.2709
lfingers 7.12502
lthumb 10.9938 17.4213
rfemur 5.72236 -4.97104 27.1372
rtibia 42.9135
rfoot -30.4517 3.26558
rtoes -5.60952
lfemur -31.3004 -7.35465 -2.52435
ltibia 29.2785
lfoot -14.2589 -3.83371
ltoes -32.7141
48
root -8.16294 16.4013 10.1644 533.783 28.9394 -172.868
lowerback 24.2198 -2.38 0.513476
upperback 17.9027 0.99612 2.41155
thorax 6.4846 2.02813 2.35686
lowerneck -11.5087 -12.6789 -23.4785
upperneck -9.00428 -13.4929 31.5913
head 3.7913 -5.5195 13.1782
rclavicle -7.37988e-015 -2.45499e-014
rhumerus -22.3077 22.1363 -90.8593
rradius 67.0885
rwrist 11.5609
rhand -19.9267 8.63858
rfingers 7.12502
rthumb 6.41058 -21.2444
lclavicle -7.37988e-015 -2.45499e-014
lhumerus -21.0441 -39.2939 99.3731
lradius 67.3893
lwrist 9.29275
lhand -15.0636 -12.2105
lfingers 7.12502
lthumb 11.1034 17.4758
rfemur 6.15577 -4.83366 27.0543
rtibia 42.661
rfoot -30.5695 3.31419
rtoes -5.82199
lfemur -31.1698 -7.44344 -2.43051
ltibia 29.3338
lfoot -14.043 -3.79444
ltoes -33.119
49
root -8.13252 16.3902 10.0517 533.956 29.0491 -172.754
lowerback 23.9152 -2.32177 0.541626
upperback 17.8283 1.01531 2.28571
thorax 6.53998 2.027 2.20006
lowerneck -11.5184 -12.6867 -23.4537
upperneck -8.89066 -13.533 31.6944
head 3.84833 -5.53521 13.206
rclavicle -3.26345e-014 3.69246e-014
rhumerus -22.5677 22.1625 -91.0403
rradius 66.8215
rwrist 11.6652
rhand -19.9414 8.59718
rfingers 7.12502
rthumb 6.39635 -21.2862
lclavicle -3.26345e-014 3.69246e-014
lhumerus -21.0444 -39.5481 99.3053
lradius 67.3618
lwrist 9.11118
lhand -14.9 -12.126
lfingers 7.12502
lthumb 11.2612 17.5517
rfemur 6.58299 -4.6721 27.0549
rtibia 42.4206
rfoot -30.6767 3.39763
rtoes -6.02453
lfemur -31.0426 -7.50364 -2.2743
ltibia 29.4117
lfoot -13.8067 -3.80736
ltoes -33.4127
50
root -8.10321 16.3812 9.93754 534.087 29.1362 -172.722
lowerback 23.6339 -2.26016 0.487871
upperback 17.7499 1.02609 2.14999
thorax 6.5814 2.01434 2.07969
lowerneck -11.5189 -12.6838 -23.4488
upperneck -8.79188 -13.5536 31.8161
head 3.89861 -5.54129 13.2498
rclavicle 2.23136e-014 -4.39314e-014
rhumerus -22.7927 22.2107 -91.2117
rradius 66.5396
rwrist 11.7408
rhand -19.9401 8.52564
rfingers 7.12502
rthumb 6.39762 -21.3577
lclavicle 2.23136e-014 -4.39314e-014
lhumerus -21.0604 -39.7788 99.2705
lradius 67.3378
lwrist 8.93846
lhand -14.772 -12.0418
lfingers 7.12502
lthumb 11.3846 17.6292
rfemur 7.01271 -4.538 26.9637
rtibia 42.1899
rfoot -30.7769 3.41635
rtoes -6.46456
lfemur -30.919 -7.62878 -2.2013
ltibia 29.5167
lfoot -13.4921 -3.8284
ltoes -33.4711
51
root -8.07465 16.3726 9.82203 534.238 29.2081 -172.666
lowerback 23.3735 -2.20725 0.473703
upperback 17.6603 1.03307 2.00143
thorax 6.60009 2.00432 1.92287
lowerneck -11.5209 -12.6756 -23.3861
upperneck -8.68576 -13.5733 31.9318
head 3.94591 -5.54725 13.2804
rclavicle 4.32854e-014 -1.8487e-014
rhumerus -23.0127 22.1954 -91.4244
rradius 66.2117
rwrist 11.8321
rhand -19.9635 8.51652
rfingers 7.12502
rthumb 6.37502 -21.3675
lclavicle 4.32854e-014 -1.8487e-014
lhumerus -21.1058 -39.987 99.2447
lradius 67.3108
lwrist 8.77491
lhand -14.5721 -12.0019
lfingers 7.12502
lthumb 11.5775 17.6583
rfemur 7.43049 -4.38559 26.8999
rtibia 41.9666
rfoot -30.8495 3.4536
rtoes -6.77725
lfemur -30.818 -7.71381 -2.13769
ltibia 29.6596
lfoot -13.1217 -3.90067
ltoes -33.2925
52
root -8.04715 16.3651 9.70603 534.399 29.2868 -172.586
lowerback 23.1465 -2.14953 0.459576
upperback 17.5635 1.04805 1.88479
thorax 6.59408 1.99661 1.79869
lowerneck -11.4806 -12.6768 -23.3925
upperneck -8.62832 -13.5987 32.0489
head 3.97944 -5.55951 13.3254
rclavicle 4.13472e-014 -1.32192e-014
rhumerus -23.2631 22.2072 -91.5848
rradius 65.9201
rwrist 11.919
rhand -19.9405 8.49224
rfingers 7.12502
rthumb 6.3973 -21.3912
lclavicle 4.13472e-014 -1.32192e-014
lhumerus -21.1973 -40.1678 99.301
lradius 67.3004
lwrist 8.61399
lhand -14.3984 -11.9313
lfingers 7.12502
lthumb 11.7449 17.7194
rfemur 7.84459 -4.21591 26.8645
rtibia 41.7469
rfoot -30.8804 3.43775
rtoes -7.07684
lfemur -30.733 -7.77718 -2.07535
ltibia 29.8296
lfoot -12.7079 -3.96313
ltoes -33.151
53
root -8.01985 16.358 9.58979 534.56 29.3251 -172.528
lowerback 22.9273 -2.0976 0.435821
upperback 17.461 1.05493 1.75283
thorax 6.57854 1.98491 1.66444
lowerneck -11.4791 -12.6861 -23.398
upperneck -8.52568 -13.6386 32.2096
head 4.04242 -5.57368 13.3836
rclavicle -6.95746e-015 1.43125e-014
rhumerus -23.4906 22.2053 -91.7794
rradius 65.6007
rwrist 11.9972
rhand -19.9353 8.42601
rfingers 7.12502
rthumb 6.40225 -21.4572
lclavicle -6.95746e-015 1.43125e-014
lhumerus -21.3094 -40.4017 99.3317
lradius 67.3121
lwrist 8.52573
lhand -14.2036 -11.8325
lfingers 7.12502
lthumb 11.9327 17.8074
rfemur 8.243 -4.059 26.8149
rtibia 41.5376
rfoot -30.904 3.41728
rtoes -7.41992
lfemur -30.6903 -7.75534 -2.09037
ltibia 30.043
lfoot -12.2963 -4.1371
ltoes -33.2975
